<?xml version="1.0" encoding="utf-8"?>
<!-- Generator: Adobe Illustrator 25.0.1, SVG Export Plug-In . SVG Version: 6.00 Build 0)  -->
<svg version="1.1" id="Layer_1" xmlns="http://www.w3.org/2000/svg" xmlns:xlink="http://www.w3.org/1999/xlink" x="0px" y="0px"
	 viewBox="0 0 150 74.8" style="enable-background:new 0 0 150 74.8;" xml:space="preserve">
<style type="text/css">
	.st0{fill:none;stroke:#B7B7B7;stroke-width:0.25;stroke-miterlimit:10;}
	.st1{fill:#002F87;}
	.st2{fill:#F1F1F1;}
	.st3{fill:none;stroke:#F1F1F1;stroke-linecap:round;stroke-miterlimit:10;}
</style>
<g>
	<path class="st0" d="M30.6,29.9c-1.1,0.6-2.4,0.9-3.7,0.9c-4.2,0-7.6-3.4-7.6-7.6s3.4-7.6,7.6-7.6c2.4,0,4.4,1,5.8,2.7l4-6.8
		C34,9.3,30.6,8,26.9,8c-8.4,0-15.4,6.9-15.4,15.4c0,8.2,6.5,14.9,14.5,15.4l4.4-7.6V43l8.4-1.8V22.6l-8.3,1.8
		C30.6,24.3,30.6,29.9,30.6,29.9z"/>
	<path class="st0" d="M57.4,7.8C49,7.8,42,14.7,42,23.2s6.9,15.4,15.4,15.4s15.4-6.9,15.4-15.4C72.7,14.7,65.9,7.8,57.4,7.8z
		 M57.4,30.8c-4.2,0-7.6-3.4-7.6-7.6s3.4-7.6,7.6-7.6S65,19,65,23.2S61.6,30.8,57.4,30.8z"/>
	<path class="st0" d="M93.5,8.6v10.1c0,2.7-2.2,4.9-4.9,4.9c-2.7,0-4.9-2.2-4.9-4.9V8.6h-7.8v10.1c0,5.7,3.7,10.5,8.9,12.2v7h7.8
		v-7.1c5.2-1.6,8.8-6.5,8.8-12.2V8.4h-7.7v0.2H93.5z"/>
	<path class="st0" d="M118.9,8.1c-7.6,0-13.8,6.2-13.8,13.8v15.9h7.8v-5H125v5h7.8V21.9C132.7,14.3,126.5,8.1,118.9,8.1z
		 M124.9,24.8h-12.1v-2.9c0-3.3,2.7-6.1,6.1-6.1c3.3,0,6.1,2.7,6.1,6.1L124.9,24.8L124.9,24.8z"/>
</g>
<g>
	<path class="st1" d="M34.2,29.7c-1.1,0.6-2.3,0.9-3.6,0.9c-4.1,0-7.4-3.3-7.4-7.4s3.3-7.4,7.4-7.4c2.3,0,4.3,1,5.6,2.6l3.9-6.6
		c-2.6-2.1-5.9-3.4-9.5-3.4c-8.2,0-14.9,6.7-14.9,14.9c0,8,6.3,14.5,14.1,14.9l4.3-7.4v11.5l8.2-1.7v-18l-8.1,1.7
		C34.3,24.3,34.3,29.7,34.2,29.7z"/>
	<path class="st1" d="M60.2,8.3C52,8.3,45.3,15,45.3,23.2S52,38.1,60.2,38.1s14.9-6.7,14.9-14.9C75.2,15,68.6,8.3,60.2,8.3z
		 M60.2,30.6c-4.1,0-7.4-3.3-7.4-7.4s3.3-7.4,7.4-7.4s7.4,3.3,7.4,7.4S64.4,30.6,60.2,30.6z"/>
	<path class="st1" d="M95.4,9v9.8c0,2.6-2.1,4.8-4.8,4.8c-2.6,0-4.8-2.1-4.8-4.8V9h-7.6v9.8c0,5.5,3.6,10.2,8.6,11.8v6.8h7.6v-6.9
		c5-1.6,8.5-6.3,8.5-11.8V8.9h-7.5C95.4,8.9,95.4,9,95.4,9z"/>
	<path class="st1" d="M120,8.6c-7.4,0-13.4,6-13.4,13.4v15.4h7.6v-4.9h11.7v4.9h7.6V22C133.3,14.6,127.4,8.6,120,8.6z M125.8,24.8
		h-11.7V22c0-3.2,2.6-5.9,5.9-5.9c3.2,0,5.9,2.6,5.9,5.9v2.8H125.8z"/>
</g>
<g>
	<path class="st2" d="M70.7,57.8c-0.1-0.4-0.4-0.7-0.7-1l0-0.1c0-0.2,0-0.4-0.2-0.5c-0.2-0.1-0.4-0.2-0.6-0.1l-1.6,0.5
		c-0.2,0.1-0.3,0.2-0.4,0.4c-0.1,0.2,0,0.4,0.1,0.6l0,0c-0.2,0.4-0.2,0.8-0.1,1.2c0.1,0.4,0.4,0.8,0.8,1C68.5,60,68.8,60,69,60
		c0.2,0,0.3,0,0.5-0.1C70.4,59.7,71,58.7,70.7,57.8L70.7,57.8z M69.3,56.8l-0.3,1.5l-1-1.1L69.3,56.8z M69.3,59.3
		c-0.3,0.1-0.6,0-0.8-0.1c-0.2-0.1-0.4-0.4-0.5-0.6c0-0.1,0-0.3,0-0.4l0.7,0.7c0.1,0.1,0.3,0.2,0.4,0.2c0.1,0,0.1,0,0.2,0
		c0.2-0.1,0.4-0.2,0.4-0.5l0.2-1c0.1,0.1,0.1,0.2,0.2,0.3C70.2,58.6,69.9,59.2,69.3,59.3L69.3,59.3z"/>
	<path class="st2" d="M85.4,52c-0.1-0.2-0.3-0.3-0.5-0.4l-3.3-0.8c-0.2-0.1-0.4,0-0.6,0.1c-0.2,0.1-0.3,0.3-0.3,0.5l-0.2,1.9
		L79,51.8c0,0-0.1-0.1-0.1-0.1c0.1-0.1,0.1-0.3,0-0.4c-0.1-0.1-0.3-0.2-0.5-0.1l-2.7,2.2c-0.1,0.1-0.2,0.3-0.1,0.5
		c0.1,0.1,0.2,0.1,0.3,0.1c0,0,0.1,0,0.1,0c0,0,0.1,0.1,0.1,0.1l0.6,0.7c0.1,0.1,0.2,0.1,0.3,0.1c0.1,0,0.2,0,0.2-0.1
		c0.1-0.1,0.2-0.3,0.1-0.5l-0.6-0.7c0,0,0-0.1,0-0.1c0,0,0-0.1,0.1-0.1l1.6-1.3c0,0,0.1,0,0.1,0c0,0,0.1,0,0.1,0.1l1.7,2.1l-0.1,0.9
		c0,0,0,0,0,0l0,0.2L79,56.4c0,0-0.1,0-0.1,0c0,0-0.1,0-0.1-0.1l-0.5-0.6c-0.1-0.1-0.3-0.2-0.5-0.1c-0.1,0.1-0.2,0.3-0.1,0.5
		l0.5,0.6c0,0,0.1,0.1,0.1,0.1c-0.1,0.1-0.1,0.3,0,0.4c0.1,0.1,0.2,0.1,0.3,0.1c0.1,0,0.2,0,0.2-0.1l1.2-0.9l0,0.4l-0.2,0.8
		c-0.1,0.4,0.2,0.8,0.6,0.9l2.1,0.5c0.1,0,0.1,0,0.2,0c0.1,0,0.3,0,0.4-0.1c0.2-0.1,0.3-0.3,0.3-0.5l0.2-0.8l1.8-5
		C85.5,52.5,85.5,52.2,85.4,52L85.4,52z M81.3,51.5C81.3,51.5,81.3,51.5,81.3,51.5l3.4,0.8c0,0,0.1,0,0.1,0c0,0,0,0,0,0.1l-0.3,0.8
		l-3.3-0.8L81.3,51.5C81.2,51.6,81.3,51.5,81.3,51.5L81.3,51.5z M83.6,55.7L80.8,55l0.2-2l3.2,0.8L83.6,55.7z M83,57.2l-2.4-0.6
		l0.1-0.9l2.6,0.6L83,57.2z M82.7,58.4C82.7,58.4,82.6,58.4,82.7,58.4l-2.2-0.5c-0.1,0-0.1-0.1-0.1-0.1l0.1-0.5l2.3,0.5L82.7,58.4
		C82.7,58.3,82.7,58.4,82.7,58.4L82.7,58.4z"/>
	<path class="st2" d="M73.9,66.9c0-0.3-0.2-0.6-0.4-0.8c-0.2-0.2-0.5-0.3-0.8-0.3c-0.3,0-0.6,0.2-0.8,0.4c-0.2,0.2-0.3,0.5-0.3,0.8
		l0.2,3.3c0,0.3,0.2,0.6,0.4,0.8c0.2,0.2,0.5,0.3,0.7,0.3c0,0,0.1,0,0.1,0h0c0.6,0,1.1-0.6,1-1.2L73.9,66.9z M73,70.7
		c-0.1,0-0.2,0-0.3-0.1c-0.1-0.1-0.1-0.2-0.2-0.3L72.3,67c0-0.1,0-0.2,0.1-0.3c0.1-0.1,0.2-0.1,0.3-0.2c0,0,0,0,0,0
		c0.1,0,0.2,0,0.3,0.1c0.1,0.1,0.1,0.2,0.2,0.3l0.2,3.3C73.5,70.5,73.3,70.7,73,70.7L73,70.7z"/>
	<path class="st2" d="M70.5,66.8c-0.1-0.6-0.7-1-1.3-1c-0.6,0.1-1,0.7-1,1.3l0.5,3.3c0,0.3,0.2,0.6,0.4,0.7c0.2,0.1,0.4,0.2,0.7,0.2
		c0.1,0,0.1,0,0.2,0c0.3,0,0.6-0.2,0.7-0.4c0.2-0.2,0.3-0.5,0.2-0.8L70.5,66.8z M70.2,70.6c-0.1,0.1-0.2,0.2-0.3,0.2
		c-0.1,0-0.2,0-0.3-0.1c-0.1-0.1-0.2-0.2-0.2-0.3l-0.5-3.3c0-0.2,0.1-0.5,0.4-0.5c0,0,0,0,0.1,0c0.2,0,0.4,0.2,0.4,0.4l0.5,3.3
		C70.3,70.3,70.3,70.5,70.2,70.6L70.2,70.6z"/>
	<path class="st2" d="M76.4,65.9c-0.3,0-0.6,0.1-0.8,0.3c-0.2,0.2-0.4,0.5-0.4,0.8L75,70.2c0,0.6,0.4,1.2,1,1.2h0c0,0,0.1,0,0.1,0
		c0.3,0,0.5-0.1,0.7-0.3c0.2-0.2,0.4-0.5,0.4-0.8l0.2-3.3c0-0.3-0.1-0.6-0.3-0.8C77,66,76.7,65.9,76.4,65.9L76.4,65.9z M76.7,67
		l-0.2,3.3c0,0.1-0.1,0.2-0.2,0.3c-0.1,0.1-0.2,0.1-0.3,0.1c-0.2,0-0.4-0.2-0.4-0.5l0.2-3.3c0-0.1,0.1-0.2,0.2-0.3
		c0.1-0.1,0.2-0.1,0.3-0.1c0.1,0,0.2,0.1,0.3,0.2C76.7,66.8,76.8,66.9,76.7,67L76.7,67z"/>
	<path class="st2" d="M78.6,66.8l-0.5,3.3c0,0.3,0,0.6,0.2,0.8c0.2,0.2,0.4,0.4,0.7,0.4c0.1,0,0.1,0,0.2,0c0.2,0,0.5-0.1,0.7-0.2
		c0.2-0.2,0.4-0.4,0.4-0.7l0.5-3.3c0.1-0.6-0.3-1.2-1-1.3c-0.3,0-0.6,0-0.8,0.2C78.8,66.3,78.6,66.5,78.6,66.8z M79.4,66.6
		c0.1-0.1,0.2-0.1,0.3-0.1c0.2,0,0.4,0.3,0.4,0.5l-0.5,3.3c0,0.2-0.3,0.4-0.5,0.4c-0.2,0-0.4-0.3-0.4-0.5l0.5-3.3
		C79.3,66.8,79.3,66.7,79.4,66.6L79.4,66.6z"/>
	<path class="st2" d="M83,61.3h-4.1l0.8-1.4c0,0,0-0.1,0.1-0.1c0,0,0,0,0.1,0c0.1,0,0.2-0.1,0.3-0.2c0.1-0.2,0-0.4-0.1-0.5L77,57.3
		c-0.2-0.1-0.4,0-0.5,0.1c-0.1,0.1-0.1,0.3,0,0.4c0,0-0.1,0.1-0.1,0.1L76,58.9v-3.4c0-0.8-0.6-1.4-1.4-1.4s-1.4,0.6-1.4,1.4v2.2
		c0,0.2,0.2,0.3,0.3,0.3s0.3-0.2,0.3-0.3v-2.2c0-0.4,0.3-0.8,0.8-0.8c0.4,0,0.8,0.3,0.8,0.8V64c0,0.4-0.3,0.8-0.8,0.8
		c-0.4,0-0.8-0.3-0.8-0.8v-4.7c0-0.2-0.2-0.3-0.3-0.3s-0.3,0.2-0.3,0.3v2h-0.2l-1.5-5.4c0,0,0-0.1,0-0.1l1.4-2.6c0,0,0-0.1,0.1-0.1
		c0,0,0,0,0.1,0c0.1,0,0.2-0.1,0.3-0.2c0.1-0.2,0-0.4-0.1-0.5L70,50.7c-0.2-0.1-0.4,0-0.5,0.1c-0.1,0.1-0.1,0.3,0,0.4
		c0,0-0.1,0.1-0.1,0.1l-0.6,1.1l-0.2-0.5c0,0,0,0,0,0c0.1-0.2,0.1-0.4,0.1-0.6l-0.2-0.5c-0.1-0.4-0.6-0.7-1-0.5L66,50.7
		c-0.2,0.1-0.4,0.2-0.5,0.4c-0.1,0.2-0.1,0.4-0.1,0.6l0.2,0.5c0.1,0.2,0.2,0.4,0.4,0.5c0,0,0,0,0,0l0.3,1c0,0.1,0.1,0.2,0.2,0.3
		l0.1,0.4c0.1,0.6,0,1.3-0.4,1.8l-0.1,0.2c-0.2,0.3-0.3,0.7-0.2,1.1l1.1,3.8H66c-0.8,0-1.5,0.7-1.5,1.5s0.7,1.5,1.5,1.5h0.1l1,8.2
		c0.1,0.6,0.6,1.1,1.2,1.1h12.4c0.6,0,1.1-0.5,1.2-1.1l1-8.2H83c0.8,0,1.5-0.7,1.5-1.5S83.8,61.3,83,61.3L83,61.3z M77.1,58.3
		c0-0.1,0.1-0.1,0.2-0.1l1.8,1c0,0,0.1,0.1,0.1,0.1c0,0,0,0.1,0,0.1l-1,1.8H76v-1L77.1,58.3z M70.1,51.7c0-0.1,0.1-0.1,0.2-0.1
		l1.8,1c0.1,0,0.1,0.1,0.1,0.2l-1.3,2.3c-0.1,0-0.1-0.1-0.2-0.1L70.4,55c-0.6-0.2-1.1-0.7-1.3-1.3l-0.1-0.2L70.1,51.7z M67,53.6
		C67,53.6,67,53.5,67,53.6l-0.3-0.9l1.4-0.4l0.2,0.8c0,0,0,0,0,0.1c0,0,0,0,0,0c0,0,0,0,0,0l-0.5,0.6c0,0-0.1,0-0.1,0L67,53.6z
		 M66.1,51.4C66.1,51.4,66.2,51.4,66.1,51.4l1.7-0.5c0,0,0,0,0,0c0,0,0,0,0,0c0,0,0,0,0,0.1l0.2,0.5c0,0,0,0.1,0,0.1c0,0,0,0-0.1,0
		l0,0l-1.7,0.5c0,0-0.1,0-0.1,0c0,0,0,0,0-0.1L66.1,51.4C66.1,51.4,66.1,51.4,66.1,51.4z M66.5,57.3c0-0.2,0-0.3,0.1-0.5l0.1-0.2
		c0.5-0.6,0.7-1.5,0.6-2.3l0.2,0.1c0.1,0,0.2,0,0.2,0c0.2,0,0.4-0.1,0.6-0.3l0.2-0.2c0.3,0.7,0.9,1.3,1.7,1.6l0.2,0.1
		c0.2,0.1,0.3,0.2,0.3,0.4l1.5,5.2h-4.5L66.5,57.3z M65.2,62.7c0-0.4,0.4-0.8,0.8-0.8h7.1v1.6H66C65.6,63.5,65.2,63.2,65.2,62.7z
		 M83,63.5h-3.3c-0.2,0-0.3,0.2-0.3,0.3c0,0.2,0.2,0.3,0.3,0.3h2.5l-1,8.1c0,0.3-0.3,0.5-0.5,0.5H68.3c-0.3,0-0.5-0.2-0.5-0.5
		l-1-8.1h6.3c0.1,0.7,0.7,1.2,1.4,1.2s1.3-0.5,1.4-1.2h2.2c0.2,0,0.3-0.2,0.3-0.3c0-0.2-0.2-0.3-0.3-0.3H76V62H83
		c0.4,0,0.8,0.4,0.8,0.8C83.8,63.2,83.4,63.5,83,63.5L83,63.5z"/>
</g>
<line class="st3" x1="9.5" y1="47.4" x2="140.5" y2="47.4"/>
<g>
	<path class="st2" d="M128.9,49.8l0.5,2.8l0.5-2.8h0.3l-0.6,3.2h-0.5l-0.6-3.2H128.9z"/>
	<path class="st2" d="M130.6,52.5V53h-0.3v-0.4H130.6z"/>
	<path class="st2" d="M133.1,50.6L133.1,50.6c0,0.4-0.1,0.6-0.4,0.7c0.3,0.1,0.4,0.3,0.4,0.7v0.2c0,0.5-0.2,0.8-0.7,0.8
		c-0.5,0-0.7-0.3-0.7-0.8V52h0.3v0.2c0,0.3,0.1,0.5,0.4,0.5c0.3,0,0.4-0.2,0.4-0.5V52c0-0.3-0.1-0.5-0.4-0.5h-0.2v-0.3h0.2
		c0.2,0,0.4-0.2,0.4-0.4v-0.1c0-0.3-0.1-0.5-0.4-0.5c-0.3,0-0.4,0.2-0.4,0.5v0.2h-0.3v-0.1c0-0.5,0.2-0.8,0.7-0.8
		C132.9,49.8,133.1,50.1,133.1,50.6z"/>
	<path class="st2" d="M133.8,52.5V53h-0.3v-0.4H133.8z"/>
	<path class="st2" d="M134.8,50.4c-0.1,0.1-0.3,0.1-0.4,0.1v-0.3c0.3,0,0.5-0.2,0.5-0.4h0.2V53h-0.4V50.4z"/>
	<path class="st2" d="M136.1,52.5V53h-0.3v-0.4H136.1z"/>
	<path class="st2" d="M136.4,50.6c0-0.5,0.2-0.8,0.7-0.8c0.5,0,0.7,0.3,0.7,0.8v1.6c0,0.5-0.2,0.8-0.7,0.8c-0.5,0-0.7-0.3-0.7-0.8
		V50.6z M136.7,52.2c0,0.3,0.1,0.5,0.4,0.5c0.3,0,0.4-0.2,0.4-0.5v-1.7c0-0.3-0.1-0.5-0.4-0.5c-0.3,0-0.4,0.2-0.4,0.5V52.2z"/>
	<path class="st2" d="M138.5,52.5V53h-0.3v-0.4H138.5z"/>
	<path class="st2" d="M138.9,50.6c0-0.5,0.2-0.8,0.7-0.8c0.5,0,0.7,0.3,0.7,0.8v1.6c0,0.5-0.2,0.8-0.7,0.8c-0.5,0-0.7-0.3-0.7-0.8
		V50.6z M139.2,52.2c0,0.3,0.1,0.5,0.4,0.5c0.3,0,0.4-0.2,0.4-0.5v-1.7c0-0.3-0.1-0.5-0.4-0.5c-0.3,0-0.4,0.2-0.4,0.5V52.2z"/>
</g>
<g>
	<path class="st2" d="M136.7,34.4c0.3,0,0.5,0,0.7,0.1c0.2,0.1,0.4,0.2,0.6,0.4c0.2,0.2,0.3,0.4,0.4,0.6c0.1,0.2,0.1,0.5,0.1,0.7
		c0,0.3-0.1,0.7-0.2,0.9c-0.2,0.3-0.4,0.5-0.7,0.7c-0.3,0.2-0.6,0.3-0.9,0.3s-0.7-0.1-0.9-0.3c-0.3-0.2-0.5-0.4-0.7-0.7
		c-0.2-0.3-0.2-0.6-0.2-0.9s0.1-0.7,0.2-0.9c0.2-0.3,0.4-0.5,0.7-0.7C136.1,34.4,136.4,34.4,136.7,34.4z M136.8,34.7
		c-0.3,0-0.5,0.1-0.8,0.2c-0.2,0.1-0.4,0.3-0.5,0.5s-0.2,0.5-0.2,0.8s0.1,0.5,0.2,0.8c0.1,0.2,0.3,0.4,0.6,0.5s0.5,0.2,0.8,0.2
		c0.3,0,0.5-0.1,0.8-0.2c0.2-0.1,0.4-0.3,0.5-0.5s0.2-0.5,0.2-0.8c0-0.3-0.1-0.5-0.2-0.8s-0.3-0.4-0.5-0.5
		C137.3,34.8,137,34.7,136.8,34.7z M136.3,37.2h-0.4v-2h0.9c0.1,0,0.3,0,0.4,0.1c0.1,0,0.2,0.1,0.2,0.2c0.1,0.1,0.1,0.2,0.1,0.3
		c0,0.1,0,0.3-0.1,0.4c-0.1,0.1-0.2,0.2-0.4,0.2c0.1,0,0.2,0.1,0.2,0.1c0.1,0.1,0.1,0.2,0.2,0.3l0.2,0.4h-0.5l-0.2-0.3
		c-0.1-0.1-0.1-0.2-0.2-0.3c-0.1-0.1-0.1-0.1-0.2-0.1s-0.1,0-0.2,0h-0.1V37.2z M136.3,35.6v0.5h0.3c0.1,0,0.3,0,0.3-0.1
		c0.1,0,0.1-0.1,0.1-0.2c0-0.1,0-0.1-0.1-0.2s-0.2-0.1-0.3-0.1H136.3z"/>
</g>
</svg>
