<?xml version="1.0" encoding="utf-8"?>
<!-- Generator: Adobe Illustrator 25.0.1, SVG Export Plug-In . SVG Version: 6.00 Build 0)  -->
<svg version="1.1" xmlns="http://www.w3.org/2000/svg" xmlns:xlink="http://www.w3.org/1999/xlink" x="0px" y="0px"
	 viewBox="0 0 18.1 24.3" style="enable-background:new 0 0 18.1 24.3;" xml:space="preserve">
<style type="text/css">
	.st0{fill:#FFCE07;}
	.st1{fill:none;stroke:#212121;stroke-width:0.25;stroke-miterlimit:10;stroke-dasharray:9.0316,9.0316;}
	.st2{fill:#FFFFFF;}
	.st3{display:none;}
	.st4{display:inline;}
	.st5{fill:#212121;}
	.st6{fill:#231F20;}
	.st7{display:inline;fill:#3DB39E;}
</style>
<g id="Layer_5">
	<g>
		<path class="st0" d="M14.9,12.1c0,3.2-2.6,5.8-5.8,5.8c-1.6,0-1.8-2-2.9-3c-1.1-1.1-3-1.2-3-2.8c0-3.2,2.6-5.8,5.8-5.8
			S14.9,8.9,14.9,12.1z"/>
		<path class="st1" d="M14.9,12.1c0,3.2-2.6,5.8-5.8,5.8c-1.6,0-1.8-2-2.9-3c-1.1-1.1-3-1.2-3-2.8c0-3.2,2.6-5.8,5.8-5.8
			C12.3,6.3,14.9,8.9,14.9,12.1z"/>
	</g>
</g>
<g id="Layer_6">
	<circle class="st2" cx="9.1" cy="12.1" r="3.7"/>
</g>
<g id="Layer_1" class="st3">
	<g id="Layer_1_1_" class="st4">
		<g>
			<path class="st5" d="M11.9,7.6h-1.6c-0.4,0-0.7,0.3-0.7,0.7v1.6c0,0.4,0.3,0.7,0.7,0.7h1.6c0.4,0,0.7-0.3,0.7-0.7V8.3
				C12.6,7.9,12.3,7.6,11.9,7.6z M12.1,9.9c0,0.1-0.1,0.2-0.2,0.2h-1.6c-0.1,0-0.2-0.1-0.2-0.2V8.3c0-0.1,0.1-0.2,0.2-0.2h1.6
				c0.1,0,0.2,0.1,0.2,0.2V9.9z"/>
			<path class="st5" d="M10.6,11.3c-0.1,0-0.3,0-0.3,0.1C10.2,11.2,9.9,11,9.6,11c-0.1,0-0.3,0-0.4,0.1c-0.1-0.2-0.3-0.3-0.6-0.3
				c-0.1,0-0.2,0-0.2,0v-0.2h0c0.4,0,0.7-0.3,0.7-0.7V8.3c0-0.4-0.3-0.7-0.7-0.7H6.8c-0.4,0-0.7,0.3-0.7,0.7v1.6
				c0,0.4,0.3,0.7,0.7,0.7h0.1v1.6c0,0-0.1-0.1-0.1-0.1c-0.2-0.1-0.3-0.1-0.6-0.1c-0.2,0-0.4,0.1-0.5,0.3c-0.1,0.2-0.2,0.3-0.1,0.6
				l0.3,1.5c0.2,1.3,1.2,2.2,1.2,2.2c0,0,0.1,0.1,0.2,0.1h3c0.1,0,0.2,0,0.2-0.1c0.5-0.8,0.8-1.7,0.8-2.7V12l0,0
				C11.4,11.6,11,11.3,10.6,11.3z M7.5,16.2c-0.2-0.2-0.9-1-1-1.9l0,0l-0.3-1.5c0,0,0-0.1,0-0.1c0,0,0,0,0.1,0c0,0,0,0,0,0
				c0,0,0.1,0,0.2,0c0,0,0.1,0.1,0.1,0.1l0.3,1.3c0,0.1,0.1,0.2,0.2,0.2l0,0c0.1,0,0.2,0,0.2,0c0,0,0.1-0.1,0.1-0.2V9.8
				c0-0.1,0.1-0.2,0.2-0.2s0.2,0.1,0.2,0.2v2.5c0,0.1,0.1,0.3,0.3,0.3s0.3-0.1,0.3-0.3v-0.7c0-0.1,0.1-0.2,0.2-0.2s0.2,0.1,0.2,0.2
				v0.7c0,0.1,0.1,0.3,0.3,0.3s0.3-0.1,0.3-0.3v-0.5c0-0.1,0.1-0.2,0.2-0.2s0.2,0.1,0.2,0.2v0.7c0,0.1,0.1,0.3,0.3,0.3
				s0.3-0.1,0.3-0.3V12c0-0.1,0.1-0.2,0.2-0.2s0.2,0.1,0.2,0.2v1.8c0,0.8-0.2,1.6-0.7,2.3H7.5L7.5,16.2z M6.7,9.9V8.3
				c0-0.1,0.1-0.2,0.2-0.2h1.6c0.1,0,0.2,0.1,0.2,0.2v1.6c0,0.1-0.1,0.2-0.2,0.2h0V9.8C8.5,9.3,8.1,9,7.7,9C7.2,9,6.9,9.3,6.9,9.8
				v0.3h0C6.7,10.1,6.7,10,6.7,9.9z"/>
		</g>
	</g>
	<g id="Layer_2_1_">
		<g class="st4">
			<path class="st5" d="M-17.7,39.1v-50.4c0-2.3,1.8-4.1,4.1-4.1c0,0,0,0,0.1,0h-4.2c-2.3,0-4.1,1.8-4.2,4.1c0,0,0,0,0,0.1v50.4
				c0,2.3,1.9,4.2,4.2,4.2h4.2C-15.9,43.3-17.7,41.4-17.7,39.1z"/>
			<g>
				<path class="st5" d="M19.9,44.2c2.8,0,5.1-2.3,5.1-5.1v-9h-1.7v9c0,1.9-1.5,3.4-3.4,3.4h-37.7c-1.8,0-3.3-1.6-3.3-3.4v-50.4
					c0-1.8,1.5-3.3,3.3-3.3l0,0h4.5v2c-1.3,0.4-2.3,1.6-2.3,3c0,1.7,1.4,3.2,3.2,3.2c1.8,0,3.2-1.4,3.2-3.2c0-1.4-0.9-2.7-2.3-3v-2
					h7.1v2c-1.4,0.4-2.4,1.6-2.3,3c0,1.7,1.4,3.2,3.2,3.2s3.2-1.4,3.2-3.2c0-1.4-1-2.6-2.3-3v-2h7v2c-1.3,0.4-2.3,1.6-2.3,3
					c0,1.7,1.4,3.2,3.2,3.2c1.7,0,3.2-1.4,3.2-3.2l0,0c0-1.4-0.9-2.7-2.3-3v-2h7.1v2c-1.4,0.4-2.4,1.6-2.3,3c0,1.7,1.4,3.2,3.2,3.1
					c1.7,0,3.1-1.4,3.1-3.1c0-1.5-1-2.7-2.3-3v-2h5.3c1.8,0,3.4,1.5,3.4,3.3v33h1.7v-33c0-2.8-2.3-5-5.1-5H15v-2.6
					c0-0.5-0.4-0.8-0.8-0.8c-0.5,0-0.8,0.4-0.8,0.8v2.6H6.3v-2.6c0-0.5-0.4-0.8-0.8-0.8s-0.8,0.4-0.8,0.8v2.6h-7v-2.6
					c0-0.5-0.4-0.8-0.8-0.8c-0.5,0-0.8,0.4-0.8,0.8v2.6H-11v-2.6c0-0.5-0.4-0.8-0.8-0.8s-0.8,0.4-0.8,0.8v2.6h-4.5
					c-2.7,0-5,2.2-5,4.9l0,0V39c0,2.8,2.2,5.1,5,5.1L19.9,44.2L19.9,44.2z M-10.9-9.6c0,0.8-0.7,1.5-1.5,1.5s-1.5-0.7-1.5-1.5
					s0.7-1.5,1.5-1.5l0,0C-11.6-11.1-10.9-10.4-10.9-9.6z M-2.2-9.6c0,0.8-0.7,1.5-1.5,1.5s-1.5-0.7-1.5-1.5s0.7-1.5,1.5-1.5
					S-2.2-10.4-2.2-9.6z M6.5-9.6c0,0.8-0.7,1.5-1.5,1.5S3.5-8.8,3.5-9.6s0.7-1.5,1.5-1.5l0,0C5.9-11.1,6.5-10.4,6.5-9.6z M15.3-9.6
					c0,0.8-0.7,1.5-1.5,1.5s-1.5-0.7-1.5-1.5s0.7-1.5,1.5-1.5l0,0C14.6-11.1,15.3-10.4,15.3-9.6z"/>
				<path class="st5" d="M18.9,1.6h-21c-0.5,0-0.8,0.4-0.8,0.8s0.4,0.8,0.8,0.8h21c0.5,0,0.8-0.4,0.8-0.8S19.3,1.6,18.9,1.6z"/>
				<path class="st5" d="M-10.5,2.2L-12.4,4l-0.8-0.8c-0.3-0.3-0.9-0.3-1.2,0s-0.3,0.9,0,1.2l0,0l1.3,1.3c0.3,0.3,0.8,0.3,1.2,0
					l2.5-2.3c0.3-0.3,0.4-0.8,0-1.2C-9.7,1.9-10.2,1.9-10.5,2.2L-10.5,2.2L-10.5,2.2z"/>
				<path class="st5" d="M-11.9-1.7c-3.1,0-5.7,2.5-5.7,5.7s2.5,5.7,5.7,5.7c3.1,0,5.7-2.5,5.7-5.7l0,0C-6.2,0.9-8.7-1.7-11.9-1.7z
					 M-11.9,8c-2.2,0-4-1.8-4-4s1.8-4,4-4s4,1.8,4,4l0,0C-7.8,6.2-9.6,8-11.9,8L-11.9,8z"/>
				<path class="st5" d="M19.7,16.4c0-0.5-0.4-0.8-0.8-0.8h-21c-0.5,0-0.8,0.4-0.8,0.8c0,0.5,0.4,0.8,0.8,0.8h21
					C19.3,17.2,19.7,16.8,19.7,16.4z"/>
				<path class="st5" d="M-10.5,16.2l-1.9,1.8l-0.8-0.8c-0.3-0.3-0.9-0.3-1.2,0s-0.3,0.9,0,1.2l0,0l1.3,1.3c0.3,0.3,0.8,0.3,1.2,0
					l2.5-2.3c0.3-0.3,0.4-0.8,0-1.2C-9.7,15.9-10.2,15.9-10.5,16.2L-10.5,16.2L-10.5,16.2z"/>
				<path class="st5" d="M-11.9,12.3c-3.1,0-5.7,2.5-5.7,5.7c0,3.1,2.5,5.7,5.7,5.7c3.1,0,5.7-2.5,5.7-5.7l0,0
					C-6.2,14.8-8.7,12.3-11.9,12.3z M-11.9,22c-2.2,0-4-1.8-4-4s1.8-4,4-4s4,1.8,4,4C-7.8,20.2-9.6,22-11.9,22L-11.9,22z"/>
				<path class="st5" d="M12,30.3c0-0.5-0.4-0.8-0.8-0.8H-2.1c-0.5,0-0.8,0.4-0.8,0.8c0,0.5,0.4,0.8,0.8,0.8h13.3
					C11.7,31.2,12,30.8,12,30.3z"/>
				<path class="st5" d="M-10.5,30.2l-1.9,1.8l-0.8-0.8c-0.3-0.3-0.9-0.3-1.2,0s-0.3,0.9,0,1.2l0,0l1.3,1.3c0.3,0.3,0.8,0.3,1.2,0
					l2.5-2.3c0.3-0.3,0.4-0.8,0-1.2C-9.7,29.9-10.2,29.9-10.5,30.2L-10.5,30.2L-10.5,30.2z"/>
				<path class="st5" d="M-11.9,26.3c-3.1,0-5.7,2.5-5.7,5.7c0,3.1,2.5,5.7,5.7,5.7c3.1,0,5.7-2.5,5.7-5.7l0,0
					C-6.2,28.8-8.7,26.3-11.9,26.3z M-11.9,36c-2.2,0-4-1.8-4-4s1.8-4,4-4s4,1.8,4,4C-7.8,34.2-9.6,36-11.9,36L-11.9,36z"/>
				<path class="st5" d="M-2.1,6H9.1c0.5,0,0.8-0.4,0.8-0.8S9.5,4.4,9.1,4.4H-2.1c-0.5,0-0.8,0.4-0.8,0.8S-2.5,6-2.1,6L-2.1,6z"/>
				<path class="st5" d="M-2.1,20H9.1c0.5,0,0.8-0.4,0.8-0.8c0-0.5-0.4-0.8-0.8-0.8H-2.1c-0.5,0-0.8,0.4-0.8,0.8
					C-2.9,19.6-2.5,20-2.1,20L-2.1,20z"/>
				<path class="st5" d="M-2.1,32.3c-0.5,0-0.8,0.4-0.8,0.8c0,0.5,0.4,0.8,0.8,0.8H9.1c0.5,0,0.8-0.4,0.8-0.8c0-0.5-0.4-0.8-0.8-0.8
					H-2.1z"/>
				<path class="st5" d="M-17.9-9.6c0-0.5-0.4-0.8-0.8-0.8c-0.5,0-0.8,0.4-0.8,0.8v0.9c0,0.5,0.4,0.8,0.8,0.8c0.5,0,0.8-0.4,0.8-0.8
					V-9.6z"/>
				<path class="st5" d="M-18.7-6.9c-0.5,0-0.8,0.4-0.8,0.8V2c0,0.5,0.4,0.8,0.8,0.8c0.5,0,0.8-0.4,0.8-0.8v-8.1
					C-17.9-6.5-18.3-6.9-18.7-6.9z"/>
			</g>
			<path class="st5" d="M39.7,15.7c-1.3-2-4-2.6-6-1.2l0,0l-13.5,8.8c-0.4,0.3-0.5,0.8-0.2,1.2c0,0,0,0,0,0.1
				c0.3,0.3,0.8,0.4,1.1,0.2l12.5-8.2l1,1.5L13.5,32l-1-1.5l4-2.6c0.4-0.3,0.5-0.8,0.2-1.2c-0.3-0.4-0.8-0.5-1.2-0.2l0,0l-4.7,3.1
				l0,0c0,0,0,0-0.1,0c0,0,0,0-0.1,0l0,0l0,0l0,0c0,0,0,0,0,0.1l0,0l0,0l-3.2,6.1c-0.2,0.4-0.1,0.9,0.3,1.1C7.8,37,8,37,8.1,37l0,0
				l7.1-0.2c0,0,0,0,0.1,0c0,0,0,0,0.1,0c0,0,0,0,0.1,0l0,0h0.1l0,0h0.1l0,0l22.8-15C40.4,20.4,41,17.7,39.7,15.7L39.7,15.7z
				 M9.5,35.3l1.9-3.6l2.3,3.4L9.5,35.3z M15.4,34.8L15.4,34.8l-1-1.5l21.1-13.9l1,1.5L15.4,34.8z M37.9,20L35,15.6
				c0.7-0.3,1.5-0.3,2.2,0.1c0.2,0.1,0.4,0.2,0.6,0.4c1.1,1,1.2,2.7,0.3,3.8C38,19.9,37.9,20,37.9,20L37.9,20z"/>
		</g>
	</g>
</g>
<g id="Layer_2" class="st3">
	<g id="Layer_2_3_" class="st4">
		<g id="Layer_2_2_">
			<g>
				<path class="st5" d="M5.5,15.8V9c0-0.3,0.2-0.6,0.6-0.6l0,0H5.5C5.2,8.4,4.9,8.7,4.9,9l0,0v6.8c0,0.3,0.2,0.6,0.6,0.6h0.6
					C5.7,16.4,5.5,16.1,5.5,15.8z"/>
				<g>
					<path class="st5" d="M10.6,16.5c0.4,0,0.7-0.3,0.7-0.7v-1.2H11v1.2c0,0.2-0.2,0.4-0.4,0.4H5.5c-0.2,0-0.4-0.2-0.4-0.4V9
						c0-0.2,0.2-0.4,0.4-0.4l0,0h0.6v0.3C6,8.9,5.8,9,5.8,9.2c0,0.2,0.2,0.4,0.4,0.4s0.4-0.2,0.4-0.4c0-0.2-0.1-0.4-0.3-0.4V8.5h0.9
						v0.3C7.1,8.9,7,9,7,9.2c0,0.2,0.2,0.4,0.4,0.4c0.2,0,0.4-0.2,0.4-0.4c0-0.2-0.1-0.4-0.3-0.4V8.5h0.9v0.3C8.3,8.9,8.2,9,8.2,9.2
						c0,0.2,0.2,0.4,0.4,0.4c0.2,0,0.4-0.2,0.4-0.4l0,0c0-0.2-0.1-0.4-0.3-0.4V8.5h0.9v0.3C9.5,8.9,9.3,9,9.3,9.2
						c0,0.2,0.2,0.4,0.4,0.4c0.2,0,0.4-0.2,0.4-0.4c0-0.2-0.1-0.4-0.3-0.4V8.5h0.7C10.8,8.5,11,8.7,11,9v4.5h0.2V9
						c0-0.4-0.3-0.7-0.7-0.7H9.9V7.9c0-0.1,0-0.1-0.1-0.1s-0.1,0-0.1,0.1v0.4H8.7V7.9c0-0.1,0-0.1-0.1-0.1c0,0-0.1,0-0.1,0.1v0.4
						H7.5V7.9c0-0.1,0-0.1-0.1-0.1s-0.1,0-0.1,0.1v0.4H6.3V7.9c0-0.1,0-0.1-0.1-0.1c0,0-0.1,0-0.1,0.1v0.4H5.5
						c-0.4,0-0.7,0.3-0.7,0.7l0,0v6.8c0,0.4,0.3,0.7,0.7,0.7L10.6,16.5L10.6,16.5z M6.4,9.2c0,0.1-0.1,0.2-0.2,0.2
						C6.1,9.4,6,9.4,6,9.2C6,9.1,6.1,9,6.2,9l0,0C6.4,9,6.4,9.1,6.4,9.2z M7.6,9.2c0,0.1-0.1,0.2-0.2,0.2S7.2,9.4,7.2,9.2
						C7.2,9.1,7.3,9,7.4,9S7.6,9.1,7.6,9.2z M8.8,9.2c0,0.1-0.1,0.2-0.2,0.2S8.4,9.4,8.4,9.2C8.4,9.1,8.4,9,8.6,9l0,0
						C8.7,9,8.8,9.1,8.8,9.2z M10,9.2c0,0.1-0.1,0.2-0.2,0.2S9.6,9.4,9.6,9.2C9.6,9.1,9.6,9,9.8,9l0,0C9.9,9,10,9.1,10,9.2z"/>
					<path class="st5" d="M10.5,10.7H7.6c-0.1,0-0.1,0-0.1,0.1c0,0,0,0.1,0.1,0.1h2.8c0.1,0,0.1,0,0.1-0.1S10.5,10.7,10.5,10.7z"/>
					<path class="st5" d="M6.5,10.8l-0.2,0.2L6.1,11c0,0-0.1,0-0.2,0c0,0,0,0.1,0,0.2l0,0l0.2,0.2c0,0,0.1,0,0.2,0L6.6,11
						c0,0,0-0.1,0-0.2C6.6,10.8,6.5,10.8,6.5,10.8L6.5,10.8L6.5,10.8z"/>
					<path class="st5" d="M6.3,10.3c-0.4,0-0.8,0.3-0.8,0.8c0,0.4,0.3,0.8,0.8,0.8c0.4,0,0.8-0.3,0.8-0.8l0,0
						C7.1,10.7,6.7,10.3,6.3,10.3z M6.3,11.6c-0.3,0-0.5-0.2-0.5-0.5c0-0.3,0.2-0.5,0.5-0.5c0.3,0,0.5,0.2,0.5,0.5l0,0
						C6.9,11.4,6.6,11.6,6.3,11.6L6.3,11.6z"/>
					<path class="st5" d="M10.6,12.8c0-0.1,0-0.1-0.1-0.1H7.6c-0.1,0-0.1,0-0.1,0.1c0,0.1,0,0.1,0.1,0.1h2.8
						C10.5,12.8,10.6,12.8,10.6,12.8z"/>
					<path class="st5" d="M6.5,12.7L6.2,13l-0.1-0.1c0,0-0.1,0-0.2,0c0,0,0,0.1,0,0.2l0,0l0.2,0.2c0,0,0.1,0,0.2,0l0.3-0.3
						c0,0,0-0.1,0-0.2C6.6,12.7,6.5,12.7,6.5,12.7L6.5,12.7L6.5,12.7z"/>
					<path class="st5" d="M6.3,12.2c-0.4,0-0.8,0.3-0.8,0.8c0,0.4,0.3,0.8,0.8,0.8c0.4,0,0.8-0.3,0.8-0.8l0,0
						C7.1,12.5,6.7,12.2,6.3,12.2z M6.3,13.5c-0.3,0-0.5-0.2-0.5-0.5s0.2-0.5,0.5-0.5c0.3,0,0.5,0.2,0.5,0.5
						C6.9,13.2,6.6,13.5,6.3,13.5L6.3,13.5z"/>
					<path class="st5" d="M9.5,14.6c0-0.1,0-0.1-0.1-0.1H7.6c-0.1,0-0.1,0-0.1,0.1c0,0.1,0,0.1,0.1,0.1h1.8
						C9.5,14.8,9.5,14.7,9.5,14.6z"/>
					<path class="st5" d="M6.5,14.6l-0.2,0.2l-0.1-0.1c0,0-0.1,0-0.2,0c0,0,0,0.1,0,0.2l0,0L6.1,15c0,0,0.1,0,0.2,0l0.3-0.3
						c0,0,0-0.1,0-0.2C6.6,14.6,6.5,14.6,6.5,14.6L6.5,14.6L6.5,14.6z"/>
					<path class="st5" d="M6.3,14.1c-0.4,0-0.8,0.3-0.8,0.8c0,0.4,0.3,0.8,0.8,0.8c0.4,0,0.8-0.3,0.8-0.8l0,0
						C7.1,14.4,6.7,14.1,6.3,14.1z M6.3,15.4c-0.3,0-0.5-0.2-0.5-0.5s0.2-0.5,0.5-0.5c0.3,0,0.5,0.2,0.5,0.5
						C6.9,15.1,6.6,15.4,6.3,15.4L6.3,15.4z"/>
					<path class="st5" d="M7.6,11.3h1.5c0.1,0,0.1,0,0.1-0.1c0,0,0-0.1-0.1-0.1H7.6c-0.1,0-0.1,0-0.1,0.1
						C7.5,11.3,7.6,11.3,7.6,11.3L7.6,11.3z"/>
					<path class="st5" d="M7.6,13.2h1.5c0.1,0,0.1,0,0.1-0.1c0-0.1,0-0.1-0.1-0.1H7.6c-0.1,0-0.1,0-0.1,0.1
						C7.5,13.2,7.6,13.2,7.6,13.2L7.6,13.2z"/>
					<path class="st5" d="M7.6,14.9c-0.1,0-0.1,0-0.1,0.1c0,0.1,0,0.1,0.1,0.1h1.5c0.1,0,0.1,0,0.1-0.1c0-0.1,0-0.1-0.1-0.1H7.6z"/>
					<path class="st5" d="M5.5,9.2c0-0.1,0-0.1-0.1-0.1c-0.1,0-0.1,0-0.1,0.1v0.1c0,0.1,0,0.1,0.1,0.1c0.1,0,0.1,0,0.1-0.1V9.2z"/>
					<path class="st5" d="M5.4,9.6c-0.1,0-0.1,0-0.1,0.1v1.1c0,0.1,0,0.1,0.1,0.1c0.1,0,0.1,0,0.1-0.1V9.7C5.5,9.6,5.4,9.6,5.4,9.6z
						"/>
				</g>
				<path class="st5" d="M13.3,12.6c-0.2-0.3-0.5-0.4-0.8-0.2l0,0l-1.8,1.2c0,0-0.1,0.1,0,0.2l0,0c0,0,0.1,0,0.2,0l1.7-1.1l0.1,0.2
					l-2.9,1.9l-0.1-0.2l0.5-0.4c0,0,0.1-0.1,0-0.2c0,0-0.1-0.1-0.2,0l0,0l-0.7,0.4l0,0l0,0l0,0l0,0l0,0l0,0l0,0l0,0l0,0l-0.4,0.8
					c0,0,0,0.1,0,0.2h0l0,0l0.9,0l0,0l0,0l0,0l0,0l0,0l0,0l0,0l0,0l3.1-2C13.4,13.3,13.4,12.9,13.3,12.6L13.3,12.6z M9.2,15.3
					l0.2-0.5l0.3,0.4L9.2,15.3z M10,15.2L10,15.2L9.9,15l2.9-1.9l0.1,0.2L10,15.2z M13,13.2l-0.4-0.6c0.1,0,0.2,0,0.3,0
					c0,0,0,0,0.1,0C13.2,12.8,13.2,13.1,13,13.2C13,13.2,13,13.2,13,13.2L13,13.2z"/>
			</g>
		</g>
	</g>
</g>
<g id="Layer_3">
	<g>
		<path class="st5" d="M10.9,8.7H6.2c0,0,0,0,0,0C6.1,8.7,6,8.7,6,8.8C5.9,8.9,5.8,9,5.8,9.1v5.1c0,0,0,0.1,0.1,0.1h0.3v1.2
			c0,0,0,0.1,0.1,0.1h4.7c0,0,0.1,0,0.1-0.1v-0.2h0.2c0,0,0.1,0,0.1-0.1V9.1C11.3,8.9,11.1,8.7,10.9,8.7z M6.6,14.8h4.5v0.1H6.6
			V14.8z M6.6,14.6v-5h4.5v5L6.6,14.6L6.6,14.6z M6.2,9.3v4.9H6V9.1C6,9,6,9,6.1,8.9c0,0,0.1-0.1,0.2-0.1v0h0c0.1,0,0.2,0.1,0.2,0.2
			v0.1L6.2,9.3C6.2,9.2,6.2,9.2,6.2,9.3z M10.9,15.4H6.3V9.3h0.1l0,5.9c0,0,0,0.1,0.1,0.1h4.3L10.9,15.4L10.9,15.4z M6.6,15.1V15
			h4.5v0.1H6.6z M11.2,9.4H6.6V9.1h0c0-0.1,0-0.2-0.1-0.2h4.4c0.1,0,0.2,0.1,0.2,0.2L11.2,9.4L11.2,9.4z"/>
		<path class="st5" d="M7.1,10.7C7.1,10.7,7.1,10.7,7.1,10.7c0.1,0.1,0.1,0.1,0.2,0.1c0,0,0.1,0.1,0.2,0.1c0.1,0,0.2,0,0.2-0.1
			c0,0,0.1,0,0.1,0c0,0,0.1,0,0.1,0c0,0,0.1,0.1,0.2,0.1c0.1,0,0.2,0,0.2-0.1c0,0,0.1,0,0.1,0c0,0,0.1,0,0.1,0c0,0,0.1,0.1,0.2,0.1
			c0.1,0,0.2,0,0.2-0.1c0,0,0.1,0,0.1,0c0,0,0.1,0,0.1,0c0,0,0.1,0.1,0.2,0.1c0.1,0,0.2,0,0.2-0.1c0,0,0.1,0,0.1,0c0,0,0.1,0,0.1,0
			c0,0,0.1,0.1,0.2,0.1c0.1,0,0.2,0,0.2-0.1c0,0,0.1,0,0.1,0c0,0,0.1,0,0.1,0c0,0,0.1,0.1,0.2,0.1s0.2,0,0.2-0.1c0,0,0.1,0,0.1,0
			c0,0,0.1,0,0.1-0.1s0-0.1-0.1-0.1c-0.1,0-0.2,0-0.2,0.1c0,0-0.1,0-0.1,0c0,0-0.1,0-0.1,0c0,0-0.1-0.1-0.2-0.1s-0.2,0-0.2,0.1
			c0,0-0.1,0-0.1,0s-0.1,0-0.1,0c0,0-0.1-0.1-0.2-0.1c-0.1,0-0.2,0-0.2,0.1c0,0-0.1,0-0.1,0c0,0-0.1,0-0.1,0c0,0-0.1-0.1-0.2-0.1
			s-0.2,0-0.2,0.1c0,0-0.1,0-0.1,0s-0.1,0-0.1,0c0,0-0.1-0.1-0.2-0.1c-0.1,0-0.2,0-0.2,0.1c0,0-0.1,0-0.1,0c0,0-0.1,0-0.1,0
			c0,0-0.1-0.1-0.2-0.1c-0.1,0-0.2,0-0.2,0.1c0,0-0.1,0-0.1,0s-0.1,0-0.1,0C7.3,10.6,7.2,10.6,7.1,10.7C7.1,10.6,7.1,10.6,7.1,10.7z
			"/>
		<path class="st5" d="M10.6,11.1c-0.1,0-0.2,0-0.2,0.1c0,0-0.1,0-0.1,0c0,0-0.1,0-0.1,0c0,0-0.1-0.1-0.2-0.1s-0.2,0-0.2,0.1
			c0,0-0.1,0-0.1,0s-0.1,0-0.1,0c0,0-0.1-0.1-0.2-0.1c-0.1,0-0.2,0-0.2,0.1c0,0-0.1,0-0.1,0c0,0-0.1,0-0.1,0c0,0-0.1-0.1-0.2-0.1
			s-0.2,0-0.2,0.1c0,0-0.1,0-0.1,0c0,0-0.1,0-0.1,0c0,0-0.1-0.1-0.2-0.1c-0.1,0-0.2,0-0.2,0.1c0,0-0.1,0-0.1,0s-0.1,0-0.1,0
			c0,0-0.1-0.1-0.2-0.1c-0.1,0-0.2,0-0.2,0.1c0,0-0.1,0-0.1,0s-0.1,0-0.1,0c0,0-0.1-0.1-0.2-0.1c0,0-0.1,0-0.1,0.1s0,0.1,0.1,0.1
			c0,0,0.1,0,0.1,0c0,0,0.1,0.1,0.2,0.1s0.2,0,0.2-0.1c0,0,0.1,0,0.1,0c0,0,0.1,0,0.1,0c0,0,0.1,0.1,0.2,0.1c0.1,0,0.2,0,0.2-0.1
			c0,0,0.1,0,0.1,0c0,0,0.1,0,0.1,0c0,0,0.1,0.1,0.2,0.1c0.1,0,0.2,0,0.2-0.1c0,0,0.1,0,0.1,0c0,0,0.1,0,0.1,0c0,0,0.1,0.1,0.2,0.1
			c0.1,0,0.2,0,0.2-0.1c0,0,0.1,0,0.1,0c0,0,0.1,0,0.1,0c0,0,0.1,0.1,0.2,0.1c0.1,0,0.2,0,0.2-0.1c0,0,0.1,0,0.1,0c0,0,0.1,0,0.1,0
			c0,0,0.1,0.1,0.2,0.1s0.2,0,0.2-0.1c0,0,0.1,0,0.1,0C10.7,11.3,10.7,11.3,10.6,11.1C10.7,11.2,10.7,11.1,10.6,11.1z"/>
		<path class="st5" d="M10.6,11.7c-0.1,0-0.2,0-0.2,0.1c0,0-0.1,0-0.1,0c0,0-0.1,0-0.1,0c0,0-0.1-0.1-0.2-0.1s-0.2,0-0.2,0.1
			c0,0-0.1,0-0.1,0s-0.1,0-0.1,0c0,0-0.1-0.1-0.2-0.1c-0.1,0-0.2,0-0.2,0.1c0,0-0.1,0-0.1,0c0,0-0.1,0-0.1,0c0,0-0.1-0.1-0.2-0.1
			s-0.2,0-0.2,0.1c0,0-0.1,0-0.1,0c0,0-0.1,0-0.1,0c0,0-0.1-0.1-0.2-0.1c-0.1,0-0.2,0-0.2,0.1c0,0-0.1,0-0.1,0s-0.1,0-0.1,0
			c0,0-0.1-0.1-0.2-0.1c-0.1,0-0.2,0-0.2,0.1c0,0-0.1,0-0.1,0s-0.1,0-0.1,0c0,0-0.1-0.1-0.2-0.1c0,0-0.1,0-0.1,0.1s0,0.1,0.1,0.1
			c0,0,0.1,0,0.1,0c0,0,0.1,0.1,0.2,0.1s0.2,0,0.2-0.1c0,0,0.1,0,0.1,0c0,0,0.1,0,0.1,0c0,0,0.1,0.1,0.2,0.1c0.1,0,0.2,0,0.2-0.1
			c0,0,0.1,0,0.1,0c0,0,0.1,0,0.1,0c0,0,0.1,0.1,0.2,0.1c0.1,0,0.2,0,0.2-0.1c0,0,0.1,0,0.1,0c0,0,0.1,0,0.1,0c0,0,0.1,0.1,0.2,0.1
			c0.1,0,0.2,0,0.2-0.1c0,0,0.1,0,0.1,0c0,0,0.1,0,0.1,0c0,0,0.1,0.1,0.2,0.1c0.1,0,0.2,0,0.2-0.1c0,0,0.1,0,0.1,0c0,0,0.1,0,0.1,0
			c0,0,0.1,0.1,0.2,0.1s0.2,0,0.2-0.1c0,0,0.1,0,0.1,0C10.7,11.9,10.7,11.8,10.6,11.7C10.7,11.7,10.7,11.7,10.6,11.7z"/>
		<path class="st5" d="M10.7,12.3C10.7,12.3,10.7,12.3,10.7,12.3c-0.2-0.1-0.2,0-0.3,0c0,0-0.1,0-0.1,0c0,0-0.1,0-0.1,0
			c0,0-0.1-0.1-0.2-0.1s-0.2,0-0.2,0.1c0,0-0.1,0-0.1,0s-0.1,0-0.1,0c0,0-0.1-0.1-0.2-0.1c-0.1,0-0.2,0-0.2,0.1c0,0-0.1,0-0.1,0
			c0,0-0.1,0-0.1,0c0,0-0.1-0.1-0.2-0.1s-0.2,0-0.2,0.1c0,0-0.1,0-0.1,0c0,0-0.1,0-0.1,0c0,0-0.1-0.1-0.2-0.1c-0.1,0-0.2,0-0.2,0.1
			c0,0-0.1,0-0.1,0s-0.1,0-0.1,0c0,0-0.1-0.1-0.2-0.1c-0.1,0-0.2,0-0.2,0.1c0,0-0.1,0-0.1,0s-0.1,0-0.1,0c0,0-0.1-0.1-0.2-0.1
			c0,0-0.1,0-0.1,0.1s0,0.1,0.1,0.1c0,0,0.1,0,0.1,0c0,0,0.1,0.1,0.2,0.1s0.2,0,0.2-0.1c0,0,0.1,0,0.1,0c0,0,0.1,0,0.1,0
			c0,0,0.1,0.1,0.2,0.1c0.1,0,0.2,0,0.2-0.1c0,0,0.1,0,0.1,0c0,0,0.1,0,0.1,0c0,0,0.1,0.1,0.2,0.1c0.1,0,0.2,0,0.2-0.1
			c0,0,0.1,0,0.1,0c0,0,0.1,0,0.1,0c0,0,0.1,0.1,0.2,0.1c0.1,0,0.2,0,0.2-0.1c0,0,0.1,0,0.1,0c0,0,0.1,0,0.1,0c0,0,0.1,0.1,0.2,0.1
			c0.1,0,0.2,0,0.2-0.1c0,0,0.1,0,0.1,0c0,0,0.1,0,0.1,0c0,0,0.1,0.1,0.2,0.1s0.2,0,0.2-0.1C10.6,12.4,10.6,12.4,10.7,12.3
			C10.7,12.4,10.7,12.4,10.7,12.3z"/>
		<path class="st5" d="M9.2,12.9C9.1,12.9,9.1,12.9,9.2,12.9C9,12.9,9,12.8,8.9,12.8s-0.2,0-0.2,0.1c0,0-0.1,0-0.1,0s-0.1,0-0.1,0
			c0,0-0.1-0.1-0.2-0.1c-0.1,0-0.2,0-0.2,0.1c0,0-0.1,0-0.1,0c0,0-0.1,0-0.1,0c0,0-0.1-0.1-0.2-0.1c-0.1,0-0.2,0-0.2,0.1
			c0,0-0.1,0-0.1,0s-0.1,0-0.1,0c0,0-0.1-0.1-0.2-0.1c0,0-0.1,0-0.1,0.1c0,0,0,0.1,0.1,0.1c0,0,0.1,0,0.1,0c0,0,0.1,0.1,0.2,0.1
			s0.2,0,0.2-0.1c0,0,0.1,0,0.1,0c0,0,0.1,0,0.1,0c0,0,0.1,0.1,0.2,0.1s0.2,0,0.2-0.1c0,0,0.1,0,0.1,0c0,0,0.1,0,0.1,0
			c0,0,0.1,0.1,0.2,0.1c0.1,0,0.2,0,0.2-0.1c0,0,0.1,0,0.1,0c0,0,0.1,0,0.1,0c0,0,0.1,0.1,0.2,0.1C9.2,13.1,9.3,13.1,9.2,12.9
			C9.3,13,9.2,12.9,9.2,12.9z"/>
		<path class="st5" d="M8.5,9.2H6.8c0,0-0.1,0-0.1,0.1s0,0.1,0.1,0.1h1.7C8.5,9.3,8.6,9.3,8.5,9.2C8.6,9.2,8.5,9.2,8.5,9.2z"/>
		<path class="st5" d="M9,9.2H8.8c0,0-0.1,0-0.1,0.1s0,0.1,0.1,0.1H9C9.1,9.3,9.1,9.3,9,9.2C9.1,9.2,9.1,9.2,9,9.2z"/>
		<path class="st5" d="M6.8,9.7C6.8,9.7,6.7,9.7,6.8,9.7l-0.1,0.9c0,0,0,0.1,0.1,0.1s0.1,0,0.1-0.1L6.8,9.7C6.9,9.7,6.8,9.7,6.8,9.7
			z"/>
		<path class="st5" d="M7.1,10V9.7c0,0,0-0.1-0.1-0.1c0,0-0.1,0-0.1,0.1V10C7,10,7,10,7.1,10C7.1,10,7.1,10,7.1,10z"/>
		<path class="st5" d="M10.9,12.8C10.9,12.8,10.9,12.8,10.9,12.8l-0.1,1.7c0,0,0,0.1,0.1,0.1c0,0,0.1,0,0.1-0.1L10.9,12.8
			C11,12.8,11,12.8,10.9,12.8z"/>
		<path class="st5" d="M10.7,13.5C10.6,13.5,10.6,13.6,10.7,13.5l-0.1,0.2c0,0,0,0.1,0.1,0.1c0,0,0.1,0,0.1-0.1L10.7,13.5
			C10.7,13.6,10.7,13.5,10.7,13.5z"/>
		<path class="st5" d="M10.7,13.9C10.6,13.9,10.6,13.9,10.7,13.9l-0.1,0.6c0,0,0,0.1,0.1,0.1c0,0,0.1,0,0.1-0.1L10.7,13.9
			C10.7,13.9,10.7,13.9,10.7,13.9z"/>
		<path class="st5" d="M12.3,9.7l-0.2-0.6C12,9,12,9,12,9c0,0-0.1,0-0.1,0.1l-0.2,0.6c0,0,0,0,0,0v5.5c0,0.2,0.1,0.3,0.3,0.3
			c0.2,0,0.3-0.1,0.3-0.3L12.3,9.7C12.3,9.7,12.3,9.7,12.3,9.7z M12,9.3l0.1,0.3h-0.2L12,9.3z M11.8,14.7V9.8h0.3v4.9L11.8,14.7
			L11.8,14.7z M12.1,14.8L12.1,14.8l-0.3,0.1v-0.1H12.1z M12,15.3c-0.1,0-0.2-0.1-0.2-0.2v-0.1h0.3v0.1C12.1,15.3,12.1,15.3,12,15.3
			z"/>
	</g>
</g>
<g id="Layer_4" class="st3">
	<g class="st4">
		<g>
			<path class="st6" d="M6.7,9.6h0.6V9H6.7V9.6C6.7,9.6,6.7,9.6,6.7,9.6z M7.4,9.8H6.6c0,0-0.1,0-0.1-0.1V8.9c0,0,0-0.1,0.1-0.1h0.8
				c0,0,0.1,0,0.1,0.1L7.4,9.8C7.5,9.8,7.4,9.8,7.4,9.8L7.4,9.8z"/>
			<path class="st6" d="M11.5,9.4H7.8c0,0-0.1,0-0.1-0.1c0,0,0-0.1,0.1-0.1h3.7C11.6,9.2,11.6,9.3,11.5,9.4
				C11.6,9.4,11.6,9.4,11.5,9.4z"/>
			<path class="st6" d="M6.7,11h0.6v-0.6H6.7V11C6.7,11,6.7,11,6.7,11z M7.4,11.2H6.6c0,0-0.1,0-0.1-0.1v-0.8c0,0,0-0.1,0.1-0.1h0.8
				c0,0,0.1,0,0.1,0.1L7.4,11.2C7.5,11.2,7.4,11.2,7.4,11.2z"/>
			<path class="st6" d="M11.5,10.8H7.8c0,0-0.1,0-0.1-0.1c0,0,0-0.1,0.1-0.1h3.7C11.6,10.6,11.6,10.7,11.5,10.8
				C11.6,10.8,11.6,10.8,11.5,10.8z"/>
			<path class="st6" d="M6.7,12.5h0.6v-0.6H6.7V12.5C6.7,12.5,6.7,12.5,6.7,12.5z M7.4,12.6H6.6c0,0-0.1,0-0.1-0.1v-0.8
				c0,0,0-0.1,0.1-0.1h0.8c0,0,0.1,0,0.1,0.1L7.4,12.6C7.5,12.6,7.4,12.6,7.4,12.6z"/>
			<path class="st6" d="M11.5,12.2H7.8c0,0-0.1,0-0.1-0.1s0-0.1,0.1-0.1h3.7C11.6,12.1,11.6,12.1,11.5,12.2
				C11.6,12.2,11.6,12.2,11.5,12.2z"/>
		</g>
		<path class="st6" d="M6.7,13.9h0.6v-0.6H6.7V13.9C6.7,13.9,6.7,13.9,6.7,13.9z M7.4,14H6.6c0,0-0.1,0-0.1-0.1v-0.8
			c0,0,0-0.1,0.1-0.1h0.8c0,0,0.1,0,0.1,0.1L7.4,14C7.5,14,7.4,14,7.4,14L7.4,14z"/>
		<path class="st6" d="M11.5,13.6H7.8c0,0-0.1,0-0.1-0.1c0,0,0-0.1,0.1-0.1h3.7C11.6,13.5,11.6,13.5,11.5,13.6
			C11.6,13.6,11.6,13.6,11.5,13.6z"/>
		<path class="st6" d="M6.7,15.3h0.6v-0.6H6.7V15.3C6.7,15.3,6.7,15.3,6.7,15.3z M7.4,15.4H6.6c0,0-0.1,0-0.1-0.1v-0.8
			c0,0,0-0.1,0.1-0.1h0.8c0,0,0.1,0,0.1,0.1L7.4,15.4C7.5,15.4,7.4,15.4,7.4,15.4z"/>
		<path class="st6" d="M11.5,15H7.8c0,0-0.1,0-0.1-0.1c0,0,0-0.1,0.1-0.1h3.7C11.6,14.9,11.6,14.9,11.5,15C11.6,15,11.6,15,11.5,15z
			"/>
	</g>
	<path class="st7" d="M7.8,8.8c0,0-0.1-0.1-0.1,0L7,9.3L6.9,9c0-0.1-0.1-0.1-0.1-0.1C6.7,8.9,6.7,9,6.7,9l0.2,0.5c0,0,0,0.1,0.1,0.1
		l0,0l0,0c0,0,0.1,0.1,0.1,0l0.7-0.6C7.8,8.9,7.8,8.8,7.8,8.8z"/>
	<path class="st7" d="M7.8,10.2c0,0-0.1-0.1-0.1,0l-0.6,0.5l-0.1-0.3c0-0.1-0.1-0.1-0.1-0.1c-0.1,0-0.1,0.1-0.1,0.1l0.2,0.5
		c0,0,0,0.1,0.1,0.1l0,0l0,0c0,0,0.1,0.1,0.1,0l0.7-0.6C7.9,10.3,7.9,10.2,7.8,10.2z"/>
	<path class="st7" d="M7.8,12.9c0,0-0.1-0.1-0.1,0l-0.6,0.5l-0.1-0.3c0-0.1-0.1-0.1-0.1-0.1c-0.1,0-0.1,0.1-0.1,0.1l0.2,0.5
		c0,0,0,0.1,0.1,0.1l0,0l0,0c0,0,0.1,0.1,0.1,0l0.7-0.6C7.9,13,7.9,13,7.8,12.9z"/>
</g>
</svg>
