<?xml version="1.0" encoding="utf-8"?>
<!-- Generator: Adobe Illustrator 25.0.1, SVG Export Plug-In . SVG Version: 6.00 Build 0)  -->
<svg version="1.1" id="Line" xmlns="http://www.w3.org/2000/svg" xmlns:xlink="http://www.w3.org/1999/xlink" x="0px" y="0px"
	 viewBox="0 0 474 474" style="enable-background:new 0 0 474 474;" xml:space="preserve">
<style type="text/css">
	.st0{fill:#263B80;}
</style>
<g>
	<g>
		<path class="st0" d="M246.1,45.6V27h27.1c4.8,0,9-4.2,9-9s-4.2-9-9-9h-72.9c-4.8,0-9,4.2-9,9s4.2,9,9,9h27.1v18.7
			c-115.7,4.8-205.4,103-200,218.7s103,205.4,218.7,200.6c115.7-5.4,205.4-103,200.6-218.7C441.9,137.2,354.5,50.5,246.1,45.6z
			 M237,446.9c-106,0-191.6-85.5-191.6-191.6S131,63.7,237,63.7s191.6,85.5,191.6,191.6C428,360.7,342.5,446.9,237,446.9z"/>
		<path class="st0" d="M246.1,90.8c0-4.8-4.2-9-9-9c-95.8,0-172.9,77.7-173.5,173.5c0,4.8,4.2,9,9,9s9-4.2,9-9
			c0-85.5,69.3-154.8,154.8-154.8C241.8,100.5,246.1,96.2,246.1,90.8z"/>
		<path class="st0" d="M321.4,139.6l-72.9,72.9c-3.6-1.8-7.8-3-11.4-3c-15.1,0-27.1,12-27.1,27.1c0,15.1,12,27.1,27.1,27.1
			s27.1-12,27.1-27.1c0-4.2-1.2-7.8-3-11.4l72.9-72.9c3.6-3.6,3.6-9.6,0-12.7C331,136,325,136,321.4,139.6L321.4,139.6z"/>
	</g>
</g>
</svg>
