<?xml version="1.0" encoding="utf-8"?>
<!-- Generator: Adobe Illustrator 25.1.0, SVG Export Plug-In . SVG Version: 6.00 Build 0)  -->
<svg version="1.1" id="Line" xmlns="http://www.w3.org/2000/svg" xmlns:xlink="http://www.w3.org/1999/xlink" x="0px" y="0px"
	 viewBox="0 0 474 474" style="enable-background:new 0 0 474 474;" xml:space="preserve">
<style type="text/css">
	.st0{fill:#D8553A;}
	.st1{fill:#AA1800;}
	.st2{fill:#F4D44E;stroke:#263B80;stroke-width:4;stroke-miterlimit:10;}
	.st3{fill:#ED694A;}
	.st4{fill:#F4A32C;}
	.st5{fill:#E89528;}
	.st6{fill:#F4D44E;}
	.st7{fill:#EAE9E8;}
	.st8{fill:#F7E7A1;}
	.st9{fill:#E8C842;}
</style>
<path class="st0" d="M246.1,45.6V27h27.1c4.8,0,9-4.2,9-9s-4.2-9-9-9h-72.9c-4.8,0-9,4.2-9,9s4.2,9,9,9h27.1v18.7
	c-115.7,4.8-205.4,103-200,218.7s103,205.4,218.7,200.6c115.7-5.4,205.4-103,200.6-218.7C441.9,137.2,354.5,50.5,246.1,45.6z
	 M237,446.9c-106,0-191.6-85.5-191.6-191.6S131,63.7,237,63.7s191.6,85.5,191.6,191.6C428,360.7,342.5,446.9,237,446.9z"/>
<path class="st1" d="M246.1,90.8c0-4.8-4.2-9-9-9c-95.8,0-172.9,77.7-173.5,173.5c0,4.8,4.2,9,9,9s9-4.2,9-9
	c0-85.5,69.3-154.8,154.8-154.8C241.8,100.5,246.1,96.2,246.1,90.8z"/>
<g>
	<path class="st2" d="M155.3,391.2c-0.9-2.8-1.5-4.5-1.5-13.2V361c0-10-3.4-13.7-11.1-13.7h-5.8v43.8H120V283.4h25.5
		c17.5,0,25.1,8.1,25.1,24.8v8.5c0,11.1-3.6,18.3-11.1,21.9c8.5,3.6,11.2,11.7,11.2,22.9v16.6c0,5.2,0.1,9.1,1.9,13.1L155.3,391.2
		L155.3,391.2z M136.9,298.8v33.1h6.6c6.3,0,10.2-2.8,10.2-11.4v-10.6c0-7.7-2.6-11.1-8.6-11.1L136.9,298.8L136.9,298.8z"/>
	<path class="st2" d="M198,283.4v83.1c0,7.7,3.4,10.4,8.8,10.4s8.8-2.8,8.8-10.4v-83.1h16v82.1c0,17.3-8.6,27.1-25.3,27.1
		c-16.6,0-25.3-9.9-25.3-27.1v-82.1H198z"/>
	<path class="st2" d="M265.8,282.2c16.5,0,24.9,9.9,24.9,27.1v3.4h-16v-4.5c0-7.7-3.1-10.6-8.5-10.6c-5.4,0-8.5,2.9-8.5,10.6
		c0,22.2,33.1,26.3,33.1,57.1c0,17.3-8.6,27.1-25.3,27.1s-25.3-9.9-25.3-27.1v-6.6h16v7.7c0,7.7,3.4,10.4,8.8,10.4s8.8-2.8,8.8-10.4
		c0-22.2-33.1-26.3-33.1-57.1C240.9,292,249.4,282.2,265.8,282.2z"/>
	<path class="st2" d="M317.6,391.2h-16.9V283.4h16.9v46.2h19.2v-46.2H354v107.7h-17.3V345h-19.2L317.6,391.2L317.6,391.2z"/>
</g>
<g>
	<path d="M409.1,87.6c-4.8-5.2-12.2-12.3-15.4,3.7c-1.1,5.4-3.6,9.6-5.8,13c-2.3-11.8-9.3-24-15.9-32.2
		c-2.5-3.1-11.2-15.3-12.9-35.8c-0.3-3.1-3.9-4.5-6.1-2.4c-21.7,19.7-33.6,46.7-34,77.2c0,0-9-7.6-13.9-21.8
		c-1.3-3.8-6.4-4.5-8.6-1.2c-0.4,0.6-0.8,1.3-1.2,1.9c-16.7,29.6-24.8,65.5-17.3,98.9c12.4,55.9,94.7,71.6,138.2,36.4
		C458.7,191,445.1,127,409.1,87.6z"/>
	<g>
		<path d="M289.4,192.5c-7.4-33.8,0.4-70,16.8-100.1c-0.4-1-0.8-2-1.2-3.1c-1.3-3.8-6.4-4.5-8.6-1.2c-0.4,0.6-0.8,1.3-1.2,1.9
			c-16.7,29.6-24.8,65.5-17.3,98.9c5.7,25.5,25.9,42.6,50.3,50.4C309.1,230.1,294.2,214.3,289.4,192.5z"/>
		<path d="M330.6,110.5c0.9-27.6,10.9-52.4,28.8-71.5c-0.1-1-0.2-2-0.3-2.7c-0.3-3.1-3.8-4.6-6-2.6c-20.9,18.9-33.7,45.7-34.2,77.3
			l3.9,3c1.9,1.5,4.5,1.4,6.4,0.1C330.3,113.3,330.5,111.9,330.6,110.5z"/>
	</g>
	<path d="M396,128.5c-3.5-3.9-9-9.1-11.4,2.7c-0.8,4-2.7,7.1-4.3,9.6c-1.7-8.7-6.9-17.7-11.8-23.8c-1.8-2.3-8.3-11.3-9.5-26.4
		c-0.2-2.3-2.9-3.3-4.5-1.8c-16,14.5-24.8,34.5-25.1,57c0,0-6.7-5.6-10.3-16.1c-1-2.8-4.7-3.4-6.4-0.9c-0.3,0.5-0.6,1-0.9,1.4
		c-12.4,21.8-18.3,48.4-12.8,73c9.2,41.3,69.9,52.9,102.1,26.9C432.6,204.9,422.6,157.6,396,128.5z"/>
	<path d="M310.5,206.6c-4.9-24.1,0.2-50,10.9-71.6c-0.8-1.6-1.6-3.4-2.3-5.3c-1-2.8-4.7-3.4-6.4-0.9c-0.3,0.5-0.6,1-0.9,1.4
		c-12.4,21.8-18.3,48.4-12.8,73c4.3,19.2,19.7,32,38.2,37.6C324.1,234.3,313.7,222.8,310.5,206.6z"/>
	<path d="M384,165.9c-2.4-2.6-6.1-6.2-7.7,1.8c-0.5,2.7-1.8,4.8-2.9,6.5c-1.2-5.9-4.7-12-8-16.1c-1.2-1.5-5.6-7.7-6.5-17.9
		c-0.1-1.5-1.9-2.2-3.1-1.2c-10.8,9.8-16.8,23.4-17,38.6c0,0-4.5-3.8-7-10.9c-0.7-1.9-3.2-2.3-4.3-0.6c-0.2,0.3-0.4,0.6-0.6,1
		c-8.4,14.8-12.4,32.7-8.7,49.4c6.2,28,47.3,35.8,69.1,18.2c7.5-6,12.1-14.5,13-23.9C401.9,196.7,396.4,179.5,384,165.9z"/>
	<path d="M372.8,200.5c-1.3-1.5-3.4-3.4-4.3,1c-0.3,1.5-1,2.7-1.6,3.6c-0.6-3.3-2.6-6.7-4.4-9c-0.7-0.9-3.1-4.3-3.6-10
		c-0.1-0.9-1.1-1.2-1.7-0.7c-6,5.5-9.4,13-9.5,21.5c0,0-2.5-2.1-3.9-6.1c-0.4-1.1-1.8-1.3-2.4-0.3c-0.1,0.2-0.2,0.4-0.3,0.5
		c-4.7,8.2-6.9,18.2-4.8,27.5c4.7,21.2,43.4,20.6,45.8-3.2C382.8,217.7,379.8,208.1,372.8,200.5z"/>
	<path d="M345.2,233c-2.1-8.3,0.2-17.3,4.8-24.6c0.1-0.2,0.2-0.3,0.3-0.5c0.6-0.8,2-0.7,2.4,0.3c1.4,3.5,3.9,5.4,3.9,5.4
		c0.1-6.2,2.4-11.9,6.5-16.4c-0.9-1.3-3.8-4.4-4.3-10.9c-0.1-0.9-1.1-1.2-1.7-0.7c-6,5.5-9.4,13-9.5,21.5c0,0-2.5-2.1-3.9-6.1
		c-0.4-1.1-1.8-1.3-2.4-0.3c-0.1,0.2-0.2,0.4-0.3,0.5c-4.7,8.2-6.9,18.2-4.8,27.5c1.9,8.6,9.8,13.8,18.5,15.1
		C350.1,241.5,346.4,237.9,345.2,233z"/>
	<g>
		<path d="M324.2,44.6c9.7-7.9,9.7-22.7,0-30.6C314.5,21.9,314.5,36.7,324.2,44.6z"/>
		<path d="M440.7,108c9.7-7.9,9.7-22.7,0-30.6C436.3,81.1,431,100.2,440.7,108z"/>
		<path d="M268.6,114.1c7-5.7,7-16.4,0-22C265.4,94.6,261.6,108.4,268.6,114.1z"/>
		<path d="M389.9,66.6c7-5.7,7-16.4,0-22C382.9,50.3,382.9,61,389.9,66.6z"/>
	</g>
	<path d="M338.3,142.3c1.6-19,8.9-35.9,21-48.7c-0.1-0.9-0.2-1.9-0.3-2.9c-0.2-2.3-2.9-3.3-4.5-1.8c-12.7,11.5-20.8,26.5-23.8,43.4
		l0,0c-0.2,1.3-0.5,3.1-0.7,4.5c0,0,0,0,0,0c-0.4,3-0.6,6-0.6,9.1C329.7,145.9,337.4,149.9,338.3,142.3z"/>
	<g>
		<path d="M329.5,220.5c-3.3-15.6-0.5-32.2,6-46.7c-1.3-1.8-2.7-4.2-3.7-7.1c-0.7-1.9-3.2-2.3-4.3-0.6c-0.2,0.3-0.4,0.6-0.6,1
			c-8.4,14.8-12.4,32.7-8.7,49.4c2.9,13.1,13.5,21.8,26.1,25.5C337.1,237.2,331.5,229.9,329.5,220.5z"/>
		<path d="M350.8,170.8c1.1-7.8,4.3-16.5,9.3-23.7c-0.5-2-1-4.3-1.2-6.9c-0.1-1.5-1.9-2.2-3.1-1.2c-6.8,6.1-11.6,13.7-14.4,22.2l0,0
			c-0.4,1.3-1,3.6-1.4,5.3c0,0,0,0,0,0c-0.8,3.6-1.2,7.3-1.2,11.1C344.9,178.4,349.9,176.9,350.8,170.8z"/>
	</g>
</g>
<g>
	<path class="st3" d="M417,85.9c-4.8-5.2-12.2-12.3-15.4,3.7c-1.1,5.4-3.6,9.6-5.8,13c-2.3-11.8-9.3-24-15.9-32.2
		c-2.5-3.1-11.2-15.3-12.9-35.8c-0.3-3.1-3.9-4.5-6.1-2.4c-21.7,19.7-33.6,46.7-34,77.2c0,0-9-7.6-13.9-21.8
		c-1.3-3.8-6.4-4.5-8.6-1.2c-0.4,0.6-0.8,1.3-1.2,1.9c-16.7,29.6-24.8,65.5-17.3,98.9c12.4,55.9,94.7,71.6,138.2,36.4
		C466.6,189.3,453,125.2,417,85.9z"/>
	<g>
		<path class="st0" d="M297.3,190.8c-7.4-33.8,0.4-70,16.8-100.1c-0.4-1-0.8-2-1.2-3.1c-1.3-3.8-6.4-4.5-8.6-1.2
			c-0.4,0.6-0.8,1.3-1.2,1.9c-16.7,29.6-24.8,65.5-17.3,98.9c5.7,25.5,25.9,42.6,50.3,50.4C317,228.4,302.1,212.6,297.3,190.8z"/>
		<path class="st0" d="M338.4,108.8c0.9-27.6,10.9-52.4,28.8-71.5c-0.1-1-0.2-2-0.3-2.7c-0.3-3.1-3.8-4.6-6-2.6
			C340,51,327.3,77.7,326.8,109.4l3.9,3c1.9,1.5,4.5,1.4,6.4,0.1C338.2,111.5,338.4,110.1,338.4,108.8z"/>
	</g>
	<path class="st4" d="M403.8,126.8c-3.5-3.9-9-9.1-11.4,2.7c-0.8,4-2.7,7.1-4.3,9.6c-1.7-8.7-6.9-17.7-11.8-23.8
		c-1.8-2.3-8.3-11.3-9.5-26.4c-0.2-2.3-2.9-3.3-4.5-1.8c-16,14.5-24.8,34.5-25.1,57c0,0-6.7-5.6-10.3-16.1c-1-2.8-4.7-3.4-6.4-0.9
		c-0.3,0.5-0.6,1-0.9,1.4c-12.4,21.8-18.3,48.4-12.8,73c9.2,41.3,69.9,52.9,102.1,26.9C440.5,203.1,430.5,155.9,403.8,126.8z"/>
	<path class="st5" d="M318.3,204.9c-4.9-24.1,0.2-50,10.9-71.6c-0.8-1.6-1.6-3.4-2.3-5.3c-1-2.8-4.7-3.4-6.4-0.9
		c-0.3,0.5-0.6,1-0.9,1.4c-12.4,21.8-18.3,48.4-12.8,73c4.3,19.2,19.7,32,38.2,37.6C332,232.6,321.6,221,318.3,204.9z"/>
	<path class="st6" d="M391.8,164.1c-2.4-2.6-6.1-6.2-7.7,1.8c-0.5,2.7-1.8,4.8-2.9,6.5c-1.2-5.9-4.7-12-8-16.1
		c-1.2-1.5-5.6-7.7-6.5-17.9c-0.1-1.5-1.9-2.2-3.1-1.2c-10.8,9.8-16.8,23.4-17,38.6c0,0-4.5-3.8-7-10.9c-0.7-1.9-3.2-2.3-4.3-0.6
		c-0.2,0.3-0.4,0.6-0.6,1c-8.4,14.8-12.4,32.7-8.7,49.4c6.2,28,47.3,35.8,69.1,18.2c7.5-6,12.1-14.5,13-23.9
		C409.8,194.9,404.3,177.7,391.8,164.1z"/>
	<path class="st7" d="M380.7,198.8c-1.3-1.5-3.4-3.4-4.3,1c-0.3,1.5-1,2.7-1.6,3.6c-0.6-3.3-2.6-6.7-4.4-9c-0.7-0.9-3.1-4.3-3.6-10
		c-0.1-0.9-1.1-1.2-1.7-0.7c-6,5.5-9.4,13-9.5,21.5c0,0-2.5-2.1-3.9-6.1c-0.4-1.1-1.8-1.3-2.4-0.3c-0.1,0.2-0.2,0.4-0.3,0.5
		c-4.7,8.2-6.9,18.2-4.8,27.5c4.7,21.2,43.4,20.6,45.8-3.2C390.7,215.9,387.6,206.4,380.7,198.8z"/>
	<path class="st8" d="M353.1,231.2c-2.1-8.3,0.2-17.3,4.8-24.6c0.1-0.2,0.2-0.3,0.3-0.5c0.6-0.8,2-0.7,2.4,0.3
		c1.4,3.5,3.9,5.4,3.9,5.4c0.1-6.2,2.4-11.9,6.5-16.4c-0.9-1.3-3.8-4.4-4.3-10.9c-0.1-0.9-1.1-1.2-1.7-0.7c-6,5.5-9.4,13-9.5,21.5
		c0,0-2.5-2.1-3.9-6.1c-0.4-1.1-1.8-1.3-2.4-0.3c-0.1,0.2-0.2,0.4-0.3,0.5c-4.7,8.2-6.9,18.2-4.8,27.5c1.9,8.6,9.8,13.8,18.5,15.1
		C357.9,239.8,354.3,236.1,353.1,231.2z"/>
	<g>
		<path class="st0" d="M332.1,42.9c9.7-7.9,9.7-22.7,0-30.6C322.4,20.2,322.4,35,332.1,42.9z"/>
		<path class="st0" d="M448.6,106.3c9.7-7.9,9.7-22.7,0-30.6C444.1,79.3,438.9,98.4,448.6,106.3z"/>
		<path class="st0" d="M276.5,112.3c7-5.7,7-16.4,0-22C273.3,92.9,269.5,106.6,276.5,112.3z"/>
		<path class="st0" d="M397.8,64.9c7-5.7,7-16.4,0-22C390.8,48.6,390.8,59.2,397.8,64.9z"/>
	</g>
	<path class="st5" d="M346.2,140.5c1.6-19,8.9-35.9,21-48.7c-0.1-0.9-0.2-1.9-0.3-2.9c-0.2-2.3-2.9-3.3-4.5-1.8
		c-12.7,11.5-20.8,26.5-23.8,43.4l0,0c-0.2,1.3-0.5,3.1-0.7,4.5c0,0,0,0,0,0c-0.4,3-0.6,6-0.6,9.1
		C337.6,144.2,345.2,148.1,346.2,140.5z"/>
	<g>
		<path class="st9" d="M337.4,218.8c-3.3-15.6-0.5-32.2,6-46.7c-1.3-1.8-2.7-4.2-3.7-7.1c-0.7-1.9-3.2-2.3-4.3-0.6
			c-0.2,0.3-0.4,0.6-0.6,1c-8.4,14.8-12.4,32.7-8.7,49.4c2.9,13.1,13.5,21.8,26.1,25.5C345,235.4,339.4,228.2,337.4,218.8z"/>
		<path class="st9" d="M358.7,169.1c1.1-7.8,4.3-16.5,9.3-23.7c-0.5-2-1-4.3-1.2-6.9c-0.1-1.5-1.9-2.2-3.1-1.2
			c-6.8,6.1-11.6,13.7-14.4,22.2l0,0c-0.4,1.3-1,3.6-1.4,5.3c0,0,0,0,0,0c-0.8,3.6-1.2,7.3-1.2,11.1
			C352.8,176.6,357.8,175.1,358.7,169.1z"/>
	</g>
</g>
<path d="M321.4,139.6l-72.9,72.9c-3.6-1.8-7.8-3-11.4-3c-15.1,0-27.1,12-27.1,27.1s12,27.1,27.1,27.1s27.1-12,27.1-27.1
	c0-4.2-1.2-7.8-3-11.4l72.9-72.9c3.6-3.6,3.6-9.6,0-12.7C331,136,325,136,321.4,139.6L321.4,139.6z"/>
<path class="st1" d="M321.4,142.6l-72.9,72.9c-3.6-1.8-7.8-3-11.4-3c-15.1,0-27.1,12-27.1,27.1s12,27.1,27.1,27.1s27.1-12,27.1-27.1
	c0-4.2-1.2-7.8-3-11.4l72.9-72.9c3.6-3.6,3.6-9.6,0-12.7C331,139,325,139,321.4,142.6L321.4,142.6z"/>
</svg>
