<?xml version="1.0" encoding="utf-8"?>
<!-- Generator: Adobe Illustrator 25.0.1, SVG Export Plug-In . SVG Version: 6.00 Build 0)  -->
<svg version="1.1" id="Line" xmlns="http://www.w3.org/2000/svg" xmlns:xlink="http://www.w3.org/1999/xlink" x="0px" y="0px"
	 viewBox="0 0 474 474" style="enable-background:new 0 0 474 474;" xml:space="preserve">
<style type="text/css">
	.st0{fill:#263B80;}
	.st1{fill:#FFCE15;stroke:#263B80;stroke-width:2;stroke-miterlimit:10;}
	.st2{fill:#FFFFFF;stroke:#263B80;stroke-width:2;stroke-miterlimit:10;}
	.st3{fill:#FFCE15;}
	.st4{fill:#FFCE15;stroke:#263B80;stroke-width:3;stroke-miterlimit:10;}
	.st5{fill:#263B80;stroke:#FFCE15;stroke-width:0.25;stroke-miterlimit:10;}
</style>
<path class="st0" d="M246.1,45.6V27h27.1c4.8,0,9-4.2,9-9s-4.2-9-9-9h-72.9c-4.8,0-9,4.2-9,9s4.2,9,9,9h27.1v18.7
	c-115.7,4.8-205.4,103-200,218.7s103,205.4,218.7,200.6c115.7-5.4,205.4-103,200.6-218.7C441.9,137.2,354.5,50.5,246.1,45.6z
	 M237,446.9c-106,0-191.6-85.5-191.6-191.6S131,63.7,237,63.7s191.6,85.5,191.6,191.6C428,360.7,342.5,446.9,237,446.9z"/>
<path class="st0" d="M246.1,90.8c0-4.8-4.2-9-9-9c-95.8,0-172.9,77.7-173.5,173.5c0,4.8,4.2,9,9,9s9-4.2,9-9
	c0-85.5,69.3-154.8,154.8-154.8C241.8,100.5,246.1,96.2,246.1,90.8z"/>
<circle class="st1" cx="387" cy="89.6" r="59.6"/>
<circle class="st2" cx="387" cy="89.6" r="47.3"/>
<path class="st3" d="M414.7,96.2l-35.5,38c-0.6,1.2-2.4,1.2-3.6,0c-0.6-0.6-0.6-1.2-0.6-2.4l6.6-33.7l-22.3-10.8
	c-1.2-0.6-1.8-1.8-1.2-3c0,0,0-0.6,0.6-0.6l33.1-38c0.6-1.2,2.4-1.2,3.6,0c0.6,0.6,0.6,1.2,0.6,2.4L391.2,80l22.3,13.3
	C415.3,93.2,415.9,94.4,414.7,96.2C415.3,95.6,415.3,95.6,414.7,96.2z"/>
<g>
	<path class="st4" d="M113.5,347.1c-1.4-4.2-2.3-6.8-2.3-20v-25.6c0-15.1-5.1-20.7-16.8-20.7h-8.8v66.3H60V184.2h38.6
		c26.5,0,37.9,12.3,37.9,37.5v12.8c0,16.8-5.4,27.7-16.8,33.1c12.8,5.4,17,17.7,17,34.7v25.1c0,7.9,0.2,13.7,2.8,19.8H113.5z
		 M85.6,207.4v50h10c9.5,0,15.4-4.2,15.4-17.2v-16.1c0-11.6-4-16.8-13-16.8H85.6z"/>
	<path class="st4" d="M178,184.2v125.7c0,11.6,5.1,15.8,13.3,15.8s13.3-4.2,13.3-15.8V184.2h24.2v124.1c0,26.1-13,41-38.2,41
		c-25.1,0-38.2-14.9-38.2-41V184.2H178z"/>
	<path class="st4" d="M280.6,182.3c24.9,0,37.7,14.9,37.7,41v5.1h-24.2v-6.8c0-11.6-4.7-16.1-12.8-16.1s-12.8,4.4-12.8,16.1
		c0,33.5,50,39.8,50,86.4c0,26.1-13,41-38.2,41s-38.2-14.9-38.2-41v-10h24.2v11.6c0,11.6,5.1,15.8,13.3,15.8s13.3-4.2,13.3-15.8
		c0-33.5-50-39.8-50-86.4C242.9,197.2,255.7,182.3,280.6,182.3z"/>
	<path class="st4" d="M358.9,347.1h-25.6V184.2h25.6V254h29.1v-69.8H414v162.9h-26.1v-69.8h-29.1V347.1z"/>
</g>
<path class="st5" d="M387,79.4l3.6-25.3l-25.9,30.1L385.8,95c1.2,0.6,1.2,1.8,1.2,2.4l-5.4,27.7L409.9,95l-21.1-12.7
	C387,81.8,387,80.6,387,79.4z"/>
<path class="st0" d="M321.4,139.6l-72.9,72.9c-3.6-1.8-7.8-3-11.4-3c-15.1,0-27.1,12-27.1,27.1c0,15.1,12,27.1,27.1,27.1
	s27.1-12,27.1-27.1c0-4.2-1.2-7.8-3-11.4l72.9-72.9c3.6-3.6,3.6-9.6,0-12.7C331,136,325,136,321.4,139.6L321.4,139.6z"/>
</svg>
